{"title":"Fedra West (1968)","uid":9721564,"size":733093888,"categoryP":"video","categoryS":"movies","magnet":"?xt=urn:btih:20862555799ce4867cab7f7b5031e637b91e64f2&amp;dn=Fedra+West+%281968%29&amp;tr=udp%3A%2F%2Ftracker.openbittorrent.com%3A80&amp;tr=udp%3A%2F%2Fopen.demonii.com%3A1337&amp;tr=udp%3A%2F%2Ftracker.coppersurfer.tk%3A6969&amp;tr=udp%3A%2F%2Fexodus.desync.com%3A6969","seeders":1,"leechers":1,"uploader":"90stosa","files":1,"time":1394242886,"description":"further details: &lt;a href=&quot;\nhttp://www.spaghetti-western.net/index.php/Io_non_perdono..._uccido&quot; rel=&quot;nofollow&quot; target=&quot;_NEW&quot;&gt;\nhttp://www.spaghetti-western.net/index.php/Io_non_perdono..._uccido&lt;/a&gt;\n\nInput #0, avi, from 'Downloads/FedraWest.1968.Xvid.DVDRip.avi':\nMetadata:\nencoder         : VirtualDubMod 1.5.4.1 (build 2178/release)\nDuration: 01:20:45.87, start: 0.000000, bitrate: 1210 kb/s\nStream #0.0: Video: mpeg4 (Advanced Simple Profile), yuv420p, 640x368 [PAR 1:1 DAR 40:23], 29.97 tbr, 29.97 tbn, 29.98 tbc\nStream #0.1: Audio: mp3, 48000 Hz, stereo, s16, 102 kb/s\n\nGlobal Southern DVD rip\n","torrent":{"xt":"urn:btih:20862555799ce4867cab7f7b5031e637b91e64f2","amp;dn":"Fedra+West+%281968%29","amp;tr":["udp%3A%2F%2Ftracker.openbittorrent.com%3A80","udp%3A%2F%2Fopen.demonii.com%3A1337","udp%3A%2F%2Ftracker.coppersurfer.tk%3A6969","udp%3A%2F%2Fexodus.desync.com%3A6969"],"infoHash":"20862555799ce4867cab7f7b5031e637b91e64f2","infoHashBuffer":{"type":"Buffer","data":[32,134,37,85,121,156,228,134,124,171,127,123,80,49,230,55,185,30,100,242]},"announce":[],"urlList":[]}}